<mxfile host="app.diagrams.net" modified="2023-10-23T19:54:37.674Z" agent="Mozilla/5.0 (Windows NT 10.0; Win64; x64) AppleWebKit/537.36 (KHTML, like Gecko) Chrome/117.0.0.0 Safari/537.36 OPR/103.0.0.0" etag="cw7SgscuW1wGF_DQMuu2" version="22.0.6" type="github">
  <diagram name="Page-1" id="x0ZHJoo8p487G2uLqanZ">
    <mxGraphModel dx="826" dy="509" grid="1" gridSize="10" guides="1" tooltips="1" connect="1" arrows="1" fold="1" page="1" pageScale="1" pageWidth="850" pageHeight="1100" math="0" shadow="0">
      <root>
        <mxCell id="0" />
        <mxCell id="1" parent="0" />
        <mxCell id="7Y25r95ySrGOq59f17NB-1" value="Dasar Pemograman" style="rounded=1;whiteSpace=wrap;html=1;" vertex="1" parent="1">
          <mxGeometry x="160" y="130" width="120" height="60" as="geometry" />
        </mxCell>
        <mxCell id="7Y25r95ySrGOq59f17NB-2" value="Logika Pemograman" style="ellipse;whiteSpace=wrap;html=1;" vertex="1" parent="1">
          <mxGeometry x="310" y="90" width="100" height="60" as="geometry" />
        </mxCell>
        <mxCell id="7Y25r95ySrGOq59f17NB-3" value="Syntaks Pemograman" style="ellipse;whiteSpace=wrap;html=1;" vertex="1" parent="1">
          <mxGeometry x="311" y="163" width="100" height="60" as="geometry" />
        </mxCell>
        <mxCell id="7Y25r95ySrGOq59f17NB-4" value="Bahasa Pemgraman" style="ellipse;whiteSpace=wrap;html=1;" vertex="1" parent="1">
          <mxGeometry x="30" y="85" width="100" height="60" as="geometry" />
        </mxCell>
        <mxCell id="7Y25r95ySrGOq59f17NB-5" value="Bahasa Pemgraman" style="ellipse;whiteSpace=wrap;html=1;" vertex="1" parent="1">
          <mxGeometry x="28" y="158" width="100" height="60" as="geometry" />
        </mxCell>
      </root>
    </mxGraphModel>
  </diagram>
</mxfile>
